<svg width="241" height="132" viewBox="0 0 241 132" fill="none" xmlns="http://www.w3.org/2000/svg">
<g filter="url(#filter0_d_2687_412)">
<rect x="36" y="36" width="169" height="60" rx="8" fill="url(#paint0_linear_2687_412)"/>
</g>
<path opacity="0.1" fill-rule="evenodd" clip-rule="evenodd" d="M205 55.916L197.958 53.4265C190.917 50.937 176.833 45.958 162.75 45.958C148.667 45.958 134.583 50.937 120.5 58.4055C106.417 65.874 92.3333 75.832 78.25 78.3215C64.1667 80.811 50.0833 75.832 43.0417 73.3425L36 70.853L36 36L43.0417 36C50.0833 36 64.1667 36 78.25 36C92.3333 36 106.417 36 120.5 36C134.583 36 148.667 36 162.75 36C176.833 36 190.917 36 197.958 36L205 36L205 55.916Z" fill="white" fill-opacity="0.6"/>
<defs>
<filter id="filter0_d_2687_412" x="0" y="0" width="241" height="132" filterUnits="userSpaceOnUse" color-interpolation-filters="sRGB">
<feFlood flood-opacity="0" result="BackgroundImageFix"/>
<feColorMatrix in="SourceAlpha" type="matrix" values="0 0 0 0 0 0 0 0 0 0 0 0 0 0 0 0 0 0 127 0" result="hardAlpha"/>
<feMorphology radius="4" operator="dilate" in="SourceAlpha" result="effect1_dropShadow_2687_412"/>
<feOffset/>
<feGaussianBlur stdDeviation="16"/>
<feComposite in2="hardAlpha" operator="out"/>
<feColorMatrix type="matrix" values="0 0 0 0 0 0 0 0 0 0 0 0 0 0 0 0 0 0 0.04 0"/>
<feBlend mode="normal" in2="BackgroundImageFix" result="effect1_dropShadow_2687_412"/>
<feBlend mode="normal" in="SourceGraphic" in2="effect1_dropShadow_2687_412" result="shape"/>
</filter>
<linearGradient id="paint0_linear_2687_412" x1="127" y1="43.2857" x2="151.639" y2="122.447" gradientUnits="userSpaceOnUse">
<stop stop-color="#155E41"/>
<stop offset="1" stop-color="#2CC488"/>
</linearGradient>
</defs>
</svg>
